<svg xmlns="http://www.w3.org/2000/svg" version="1.1" xmlns:xlink="http://www.w3.org/1999/xlink" width="512" height="512" x="0" y="0" viewBox="0 0 128 128" style="enable-background:new 0 0 512 512" xml:space="preserve" class=""><g><path d="M64 40c6.617 0 12-5.383 12-12-.66-15.92-23.343-15.915-24 0 0 6.617 5.383 12 12 12zm0-20c4.411 0 8 3.589 8 8-.44 10.613-15.562 10.61-16 0 0-4.411 3.589-8 8-8zM87.5 44C93.29 44 98 39.29 98 33.5c-.577-13.93-20.425-13.926-21 0C77 39.29 81.71 44 87.5 44zm0-17c3.584 0 6.5 2.916 6.5 6.5-.327 8.611-12.674 8.609-13 0 0-3.584 2.916-6.5 6.5-6.5zM39.5 44C45.29 44 50 39.29 50 33.5c-.577-13.93-20.425-13.926-21 0C29 39.29 33.71 44 39.5 44zm0-17c3.584 0 6.5 2.916 6.5 6.5-.327 8.611-12.674 8.609-13 0 0-3.584 2.916-6.5 6.5-6.5zM34 94h60a2 2 0 0 0 2-2V80a2 2 0 0 0-2-2H34a2 2 0 0 0-2 2v12a2 2 0 0 0 2 2zm2-12h56v8H36z" fill="#b08d59" opacity="1" data-original="#000000" class=""></path><path d="M110 74a2 2 0 0 0 2-2v-8a2 2 0 0 0-2-2h-2v-2.58c.021-7.456-5.83-13.786-13.242-14.508-3.446 2.896-8.736 3.322-12.476.79-.047-.047-.095-.097-.144-.142-2.693-2.735-6.35-4.417-10.17-4.836-4.558 3.78-11.537 3.782-16.07-.014-4.072.402-7.933 2.177-10.635 5.04-3.748 2.296-8.8 1.795-12.136-1.01C25.36 45.414 19.49 51.784 20 59.315V62h-2a2 2 0 0 0-2 2v8a2 2 0 0 0 2 2h5v25h-5a2 2 0 0 0-2 2v9a2 2 0 0 0 2 2h92a2 2 0 0 0 2-2v-9a2 2 0 0 0-2-2h-5V74zM95.714 49.125C100.487 50.187 104 54.487 104 59.42V62H87c.002-3.357.25-7.668-1.15-10.77 3.416.5 6.969-.248 9.864-2.105zm-40.818-4.222c5.303 3.546 12.709 3.557 18.038.028 2.54.525 4.87 1.851 6.645 3.725A12.604 12.604 0 0 1 83 57.29V62H45v-4.71l-.004-.135c-.496-5.976 4.059-11.224 9.9-12.252zm-30.9 14.212c-.332-4.904 3.127-9.162 8.142-10.18 2.837 1.827 6.41 2.647 9.778 2.115A15.347 15.347 0 0 0 41 57.355V62H24v-2.75zM20 66h88v4H20zm88 42H20v-5h88zm-7-9H27V74h74z" fill="#b08d59" opacity="1" data-original="#000000" class=""></path></g></svg>
